# xmcd
#
# Track frame offsets:
#	150
#	17098
#	32182
#	45227
#	59478
#	73021
#	88647
#	99949
#	114111
#	125895
#	139195
#	152293
#
# Disc length: 2274 seconds
#
# Revision: 0
# Processed by: cddbd v1.5.1PL0 Copyright (c) Steve Scherf et al.
# Submitted via: audiograbber 1.81.02
#
DISCID=9608e00c
DTITLE=TIBAGI and MILTINHO - TIBAGI and MILTINHO 2
DYEAR=1966
DGENRE=SERTANEJO
TTITLE0=TEU CASAMENTO
TTITLE1=QUEM DIRIA
TTITLE2=DESPEDIDA
TTITLE3=AOS QUATRO VENTOS
TTITLE4=CORAÇÃO CORAÇÃO
TTITLE5=PRANTO DE DOR
TTITLE6=FLOR PROIBIDA
TTITLE7=MEU CASTIGO É QUERER-TE
TTITLE8=CONTIGO
TTITLE9=POBRE CORAÇÃO
TTITLE10=ESCRAVO DA SAUDADE
TTITLE11=CU-CU-RU-CU-CU-CU PALOMA
EXTD=
EXTT0=
EXTT1=
EXTT2=
EXTT3=
EXTT4=
EXTT5=
EXTT6=
EXTT7=
EXTT8=
EXTT9=
EXTT10=
EXTT11=
PLAYORDER=
